<?xml version="1.0" encoding="UTF-8"?>
<svg id="Camada_2" data-name="Camada 2" xmlns="http://www.w3.org/2000/svg" viewBox="0 0 349.57 161.29">
  <defs>
    <style>
      .cls-1 {
        fill: #fff;
      }
    </style>
  </defs>
  <g id="Camada_1-2" data-name="Camada 1">
    <g>
      <path class="cls-1" d="M75.21,128.96c-10.12,0-16.58-6.63-19.37-19.89l-4.01-19.37c-1.28-6.28-2.73-11.05-4.36-14.31-1.51-3.26-3.66-5.47-6.46-6.63-2.68-1.16-6.4-1.75-11.17-1.75-1.63,0-2.91.47-3.84,1.4-.93.81-1.4,1.86-1.4,3.14v43.62c0,2.44.47,4.13,1.4,5.06.93.81,3.02,1.51,6.28,2.09l6.46,1.05c1.28.23,1.92.87,1.92,1.92,0,1.4-.87,2.09-2.62,2.09H2.62c-1.74,0-2.62-.64-2.62-1.92,0-1.05.76-1.75,2.27-2.09l4.01-.7c2.44-.47,4.01-1.11,4.71-1.92.81-.81,1.22-2.44,1.22-4.89V13.26c0-2.44-.41-4.07-1.22-4.89-.7-.81-2.27-1.45-4.71-1.92l-4.01-.7c-1.51-.35-2.27-1.05-2.27-2.09,0-1.28.87-1.92,2.62-1.92h35.42c6.86,0,12.97,1.34,18.32,4.01,5.35,2.68,9.54,6.4,12.56,11.17,3.02,4.65,4.54,10.06,4.54,16.23,0,7.33-2.21,13.96-6.63,19.89-4.42,5.82-10,9.95-16.75,12.39-.81.23-1.28.64-1.4,1.22,0,.47.41.87,1.22,1.22,3.72,1.74,6.63,4.19,8.72,7.33,2.21,3.14,3.9,7.33,5.06,12.56l3.84,17.8c1.28,6.05,2.79,10.35,4.54,12.91,1.74,2.56,3.96,3.84,6.63,3.84.93,0,1.75-.12,2.44-.35.81-.35,1.8-.93,2.97-1.75.93-.58,1.8-.7,2.62-.35.81.23,1.22.81,1.22,1.74,0,1.98-1.28,3.72-3.84,5.23-2.56,1.4-5.53,2.09-8.9,2.09v.04ZM36.3,62.65c7.91,0,13.9-2.62,17.97-7.85,4.07-5.35,6.11-12.45,6.11-21.29s-2.38-15.3-7.15-20.07c-4.65-4.89-11.11-7.33-19.37-7.33-6.17,0-9.25,2.33-9.25,6.98v39.96c0,6.4,3.9,9.6,11.69,9.6h0Z"/>
      <path class="cls-1" d="M132.95,128.96c-5.2,0-9.77-1.11-13.69-3.33s-7-5.29-9.21-9.21c-2.13-3.92-3.2-8.49-3.2-13.69s.98-9.73,2.94-14.08c2.05-4.35,4.78-8.11,8.19-11.26,3.5-3.16,7.42-5.42,11.77-6.78-2.56-3.33-3.84-7.51-3.84-12.54,0-4.44.98-8.45,2.94-12.03,2.05-3.58,4.78-6.4,8.19-8.45,3.5-2.13,7.38-3.2,11.65-3.2,2.73,0,5.33.47,7.81,1.41,2.56.85,4.65,2.05,6.27,3.58,1.19,1.11,1.62,2.52,1.28,4.22l-3.58,18.68c-.26,1.28-.85,1.92-1.79,1.92-1.02,0-1.58-.73-1.66-2.18l-.13-2.69c-.34-7.08-1.32-12.07-2.94-14.97-1.62-2.99-4.27-4.48-7.93-4.48-3.07,0-5.84.81-8.32,2.43-2.39,1.62-4.31,3.84-5.76,6.65-1.45,2.82-2.18,6.01-2.18,9.6,0,5.03,1.36,8.75,4.09,11.13,1.28-.17,2.56-.26,3.84-.26,4.52,0,6.78,1.11,6.78,3.33,0,2.05-1.62,3.07-4.86,3.07-2.65,0-5.08-.85-7.29-2.56-10.84,3.33-16.25,12.2-16.25,26.62,0,7.85,1.71,13.99,5.12,18.43,3.41,4.35,8.11,6.53,14.08,6.53,4.27,0,8.11-1.07,11.52-3.2,3.5-2.13,6.27-4.95,8.32-8.45,2.05-3.58,3.07-7.55,3.07-11.9,0-6.65-3.16-9.98-9.47-9.98-2.47,0-4.44.51-5.89,1.54-1.36.94-2.05,2.13-2.05,3.58,0,1.28.43,2.13,1.28,2.56s1.83.77,2.94,1.02c1.11.26,2.09.73,2.94,1.41.85.6,1.28,1.75,1.28,3.46,0,1.54-.56,2.77-1.66,3.71-1.11.85-2.56,1.28-4.35,1.28-2.3,0-4.14-.85-5.5-2.56s-2.05-3.97-2.05-6.78c0-3.16.94-5.89,2.82-8.19s4.39-3.97,7.55-4.99c3.24-1.02,6.78-1.19,10.62-.51l3.97.64c5.55.85,8.32.17,8.32-2.05,0-1.02-.47-1.75-1.41-2.18s-2.01-.81-3.2-1.15c-1.19-.43-2.26-.98-3.2-1.66-.94-.77-1.41-1.92-1.41-3.46,0-1.45.51-2.64,1.54-3.58,1.02-.94,2.47-1.41,4.35-1.41,2.47,0,4.39.9,5.76,2.69,1.36,1.71,2.05,4.01,2.05,6.91,0,3.67-1.15,6.61-3.46,8.83-2.3,2.22-5.25,3.2-8.83,2.94.6,1.96.9,4.31.9,7.04,0,5.46-1.28,10.37-3.84,14.72-2.47,4.27-5.89,7.64-10.24,10.11-4.35,2.47-9.34,3.71-14.97,3.71h-.02Z"/>
      <path class="cls-1" d="M240.61,128.96c-8.61,0-16.17-2.68-22.68-8.03-6.4-5.35-11.4-12.85-15.01-22.51-3.49-9.77-5.24-21.29-5.24-34.55s1.92-23.96,5.76-33.5c3.96-9.66,9.19-17.1,15.7-22.34,6.63-5.35,13.96-8.03,21.99-8.03,4.77,0,8.96.47,12.56,1.4,3.61.81,6.81,1.92,9.6,3.32,1.4.81,2.09,2.04,2.09,3.66l.52,26.52c0,1.98-.7,2.97-2.09,2.97-1.28,0-2.09-.76-2.44-2.27l-1.74-6.46c-2.44-9.07-5.29-15.36-8.55-18.85-3.14-3.49-6.92-5.23-11.34-5.23-8.14,0-14.95,5.06-20.42,15.18-5.35,10-8.03,24.55-8.03,43.62,0,13.03,1.34,24.02,4.01,32.98,2.79,8.96,6.34,15.7,10.64,20.24,4.42,4.54,9.07,6.81,13.96,6.81,5.23,0,9.42-1.63,12.56-4.89,3.26-3.26,5.99-9.54,8.2-18.85l2.09-8.55c.35-1.74,1.28-2.5,2.79-2.27,1.28.23,1.92,1.22,1.92,2.97l-.7,28.27c0,1.63-.76,2.85-2.27,3.66-2.79,1.4-6.11,2.5-9.95,3.31-3.72.93-8.38,1.4-13.96,1.4l.03.02Z"/>
      <path class="cls-1" d="M276.99,127.39c-1.74,0-2.62-.64-2.62-1.92,0-1.05.76-1.75,2.27-2.09l4.01-.7c2.44-.47,4.01-1.11,4.71-1.92.82-.81,1.22-2.44,1.22-4.89V13.27c0-2.44-.41-4.07-1.22-4.89-.7-.81-2.27-1.45-4.71-1.92l-4.01-.7c-1.51-.35-2.27-1.05-2.27-2.09,0-1.28.87-1.92,2.62-1.92h35.42c5.82,0,10.99,1.22,15.53,3.66s8.08,5.76,10.64,9.95c2.68,4.19,4.01,8.96,4.01,14.31s-1.57,10.12-4.71,14.66c-3.02,4.42-7.45,8.14-13.26,11.17-.7.35-1.05.81-1.05,1.4s.41.99,1.22,1.22c7.91,2.68,14.02,6.98,18.32,12.91,4.3,5.82,6.46,12.74,6.46,20.76,0,6.86-1.57,13.03-4.71,18.5-3.14,5.35-7.5,9.54-13.09,12.56-5.47,3.03-11.69,4.54-18.67,4.54h-36.12,0ZM308.22,55.67c6.17,0,11.28-2.38,15.36-7.15,4.19-4.89,6.28-10.93,6.28-18.15s-1.98-13.03-5.93-17.45c-3.96-4.54-9.19-6.81-15.7-6.81-6.17,0-9.25,2.33-9.25,6.98v32.98c0,3.37.7,5.82,2.09,7.33,1.51,1.51,3.9,2.27,7.15,2.27h0ZM310.84,123.02c7.56,0,13.73-2.85,18.5-8.55,4.77-5.82,7.15-13.55,7.15-23.21s-2.44-17.27-7.33-22.86c-4.77-5.58-11.23-8.38-19.37-8.38-7.21,0-10.82,2.85-10.82,8.55v42.4c0,8.03,3.95,12.04,11.86,12.04h.01Z"/>
      <path class="cls-1" d="M.17,160.2l5.11-15.1h2.29l5.13,15.1h-2l-4.29-13.06h-.09l-4.23,13.06H.17ZM2.51,156.67v-1.54h7.77v1.54H2.51Z"/>
      <path class="cls-1" d="M17.4,160.2v-15.1h5.13c.82,0,1.59.11,2.31.33s1.35.58,1.89,1.08c.54.5.96,1.16,1.25,1.98.31.82.46,1.83.46,3.04v2.22c0,1.19-.15,2.2-.46,3.04-.29.82-.71,1.48-1.25,1.98s-1.17.87-1.89,1.1c-.72.22-1.49.33-2.31.33h-5.13ZM19.36,158.59h3.08c.76,0,1.45-.13,2.05-.4.62-.26,1.1-.73,1.45-1.41s.53-1.62.53-2.84v-2.62c0-1.19-.18-2.12-.53-2.8s-.84-1.15-1.45-1.43c-.6-.28-1.28-.42-2.05-.42h-3.08v11.91h0Z"/>
      <path class="cls-1" d="M36.99,160.2l-5.13-15.1h2l4.29,13.03h.09l4.21-13.03h1.94l-5.13,15.1h-2.27,0Z"/>
      <path class="cls-1" d="M53.87,160.42c-.78,0-1.5-.11-2.18-.33-.68-.23-1.27-.61-1.78-1.12-.51-.53-.91-1.23-1.19-2.11-.28-.88-.42-1.97-.42-3.28v-1.85c0-1.31.14-2.4.42-3.28.29-.9.7-1.6,1.21-2.11.51-.53,1.1-.9,1.76-1.12.68-.22,1.39-.33,2.16-.33h.22c.79,0,1.53.12,2.2.35.68.22,1.26.59,1.76,1.12.5.51.89,1.21,1.17,2.09.29.88.44,1.97.44,3.28v1.85c0,1.29-.15,2.38-.44,3.26-.28.88-.67,1.59-1.17,2.11-.5.51-1.09.89-1.76,1.12-.66.23-1.38.35-2.16.35h-.24ZM53.96,158.83c.51,0,.99-.07,1.43-.22.45-.15.85-.4,1.19-.75.34-.37.6-.87.79-1.5.19-.65.29-1.45.29-2.42v-2.62c0-.97-.1-1.77-.29-2.4-.19-.63-.46-1.12-.79-1.48-.34-.37-.73-.62-1.19-.77-.44-.15-.92-.22-1.43-.22s-.99.07-1.43.22c-.44.15-.83.4-1.17.77-.34.35-.6.84-.79,1.48-.19.63-.29,1.43-.29,2.4v2.62c0,.97.1,1.78.29,2.42.19.63.46,1.13.79,1.5.34.35.73.6,1.17.75s.92.22,1.43.22Z"/>
      <path class="cls-1" d="M69.64,160.42c-.76,0-1.48-.11-2.16-.33-.66-.23-1.25-.61-1.76-1.12-.5-.53-.89-1.23-1.17-2.11-.28-.88-.42-1.97-.42-3.28v-1.85c0-1.31.13-2.4.4-3.28.28-.9.67-1.6,1.17-2.11.5-.53,1.09-.9,1.76-1.12s1.42-.33,2.22-.33h.26c.7,0,1.38.1,2.03.29s1.22.51,1.72.95c.5.43.9.99,1.19,1.7.29.69.44,1.54.44,2.55h-1.87c0-.97-.16-1.73-.48-2.29-.32-.57-.76-.98-1.32-1.23-.54-.25-1.17-.37-1.87-.37s-1.34.14-1.89.42c-.54.26-.98.75-1.3,1.45-.31.69-.46,1.69-.46,2.99v2.62c0,.97.1,1.78.29,2.42.19.63.46,1.13.79,1.5.34.35.73.6,1.17.75s.92.22,1.43.22c.66,0,1.27-.12,1.83-.35.57-.23,1.03-.65,1.37-1.25.35-.62.53-1.48.53-2.6v-.84h-4.23v-1.48h6.03v5.13c0,.6,0,1.14.04,1.61.03.46.06.84.09,1.14h-1.19l-.4-1.94c-.43.73-1.01,1.28-1.74,1.63-.73.35-1.52.53-2.36.53h-.13v-.02Z"/>
      <path class="cls-1" d="M79.39,160.2l5.11-15.1h2.29l5.13,15.1h-2l-4.29-13.06h-.09l-4.23,13.06h-1.92ZM81.72,156.67v-1.54h7.77v1.54h-7.77Z"/>
      <path class="cls-1" d="M96.62,160.2v-15.1h5.13c.82,0,1.59.11,2.31.33s1.35.58,1.89,1.08.96,1.16,1.25,1.98c.31.82.46,1.83.46,3.04v2.22c0,1.19-.15,2.2-.46,3.04-.29.82-.71,1.48-1.25,1.98s-1.17.87-1.89,1.1c-.72.22-1.49.33-2.31.33h-5.13ZM98.58,158.59h3.08c.76,0,1.45-.13,2.05-.4.62-.26,1.1-.73,1.45-1.41.35-.68.53-1.62.53-2.84v-2.62c0-1.19-.18-2.12-.53-2.8s-.84-1.15-1.45-1.43c-.6-.28-1.28-.42-2.05-.42h-3.08v11.91h0Z"/>
      <path class="cls-1" d="M117.24,160.42c-.78,0-1.5-.11-2.18-.33-.68-.23-1.27-.61-1.78-1.12-.51-.53-.91-1.23-1.19-2.11-.28-.88-.42-1.97-.42-3.28v-1.85c0-1.31.14-2.4.42-3.28.29-.9.7-1.6,1.21-2.11.51-.53,1.1-.9,1.76-1.12.68-.22,1.39-.33,2.16-.33h.22c.79,0,1.53.12,2.2.35.68.22,1.26.59,1.76,1.12.5.51.89,1.21,1.17,2.09.29.88.44,1.97.44,3.28v1.85c0,1.29-.15,2.38-.44,3.26-.28.88-.67,1.59-1.17,2.11-.5.51-1.09.89-1.76,1.12-.66.23-1.38.35-2.16.35h-.24ZM117.33,158.83c.51,0,.99-.07,1.43-.22.46-.15.85-.4,1.19-.75.34-.37.6-.87.79-1.5.19-.65.29-1.45.29-2.42v-2.62c0-.97-.1-1.77-.29-2.4-.19-.63-.46-1.12-.79-1.48-.34-.37-.73-.62-1.19-.77-.44-.15-.92-.22-1.43-.22s-.99.07-1.43.22c-.44.15-.83.4-1.17.77-.34.35-.6.84-.79,1.48-.19.63-.29,1.43-.29,2.4v2.62c0,.97.1,1.78.29,2.42.19.63.46,1.13.79,1.5.34.35.73.6,1.17.75s.92.22,1.43.22Z"/>
      <path class="cls-1" d="M133.19,160.42c-.76,0-1.49-.08-2.18-.24-.68-.16-1.28-.41-1.81-.75-.51-.35-.92-.81-1.23-1.39-.29-.57-.44-1.26-.44-2.07v-.22c0-.07,0-.15.02-.22h1.83c0,.09-.02.18-.02.26v.26c0,.65.16,1.17.48,1.59.32.4.76.69,1.32.88.57.19,1.23.29,1.96.29s1.38-.08,1.94-.24c.56-.18,1-.46,1.32-.86.32-.41.48-.95.48-1.63,0-.59-.17-1.06-.51-1.41-.32-.35-.75-.63-1.28-.84-.53-.22-1.12-.41-1.76-.57-.63-.16-1.26-.34-1.89-.53s-1.22-.43-1.76-.73c-.53-.31-.95-.72-1.28-1.23-.32-.51-.48-1.17-.48-1.96,0-.91.24-1.65.73-2.22.48-.59,1.13-1.02,1.94-1.3s1.68-.42,2.62-.42,1.84.14,2.62.42c.79.28,1.42.72,1.89,1.32s.7,1.39.7,2.36v.29h-1.78v-.4c0-.53-.15-.97-.46-1.32-.29-.37-.7-.64-1.21-.81-.5-.19-1.08-.29-1.74-.29s-1.2.08-1.72.24c-.51.15-.92.39-1.21.73-.29.34-.44.79-.44,1.34s.16.98.48,1.3c.32.32.75.59,1.28.79.54.19,1.13.37,1.76.53.65.15,1.28.32,1.92.51.63.18,1.21.43,1.74.75.54.31.98.72,1.3,1.23.34.51.51,1.18.51,2,0,1.1-.26,1.99-.77,2.66-.5.66-1.17,1.14-2.03,1.45-.84.29-1.78.44-2.84.44h0Z"/>
      <g>
        <path class="cls-1" d="M213.91,161.07v-15.1h9.68l-.26,1.58h-7.48v5.02h6.73v1.56h-6.73v5.3h7.64l.29,1.63h-9.87Z"/>
        <path class="cls-1" d="M234.36,161.29c-.76,0-1.49-.08-2.18-.24-.68-.16-1.28-.41-1.8-.75-.51-.35-.92-.81-1.23-1.39-.29-.57-.44-1.26-.44-2.07v-.22c0-.07,0-.15.02-.22h1.83c-.01.09-.02.18-.02.26v.26c0,.65.16,1.17.48,1.58.32.4.76.69,1.32.88.57.19,1.22.29,1.96.29s1.38-.08,1.94-.24c.56-.18,1-.46,1.32-.86.32-.41.48-.95.48-1.63,0-.59-.17-1.06-.51-1.41-.32-.35-.75-.63-1.28-.84-.53-.22-1.12-.41-1.76-.57-.63-.16-1.26-.34-1.89-.53s-1.22-.43-1.76-.73c-.53-.31-.95-.72-1.28-1.23-.32-.51-.48-1.17-.48-1.96,0-.91.24-1.65.73-2.22.48-.59,1.13-1.02,1.94-1.3s1.68-.42,2.62-.42,1.84.14,2.62.42c.79.28,1.42.72,1.89,1.32s.7,1.39.7,2.35v.29h-1.78v-.4c0-.53-.15-.97-.46-1.32-.29-.37-.7-.64-1.21-.81-.5-.19-1.08-.29-1.74-.29s-1.2.08-1.72.24c-.51.15-.92.39-1.21.73-.29.34-.44.78-.44,1.34s.16.98.48,1.3c.32.32.75.59,1.28.79.54.19,1.13.37,1.76.53.65.15,1.28.32,1.91.51.63.18,1.21.43,1.74.75.54.31.98.72,1.3,1.23.34.51.51,1.18.51,2,0,1.1-.26,1.99-.77,2.66-.5.66-1.17,1.14-2.02,1.45-.84.29-1.78.44-2.84.44v.03Z"/>
        <path class="cls-1" d="M249.23,161.07v-13.47h-4.82v-1.63h11.55v1.63h-4.82v13.47h-1.91,0Z"/>
      </g>
      <path class="cls-1" d="M270.83,155.93v-2.51h2.64v2.51h-2.64Z"/>
      <path class="cls-1" d="M289.49,161.07v-.68c0-.92.18-1.69.53-2.31.37-.63.91-1.18,1.63-1.65l4.42-2.9c.48-.32.91-.75,1.28-1.28s.55-1.15.55-1.87c0-.94-.26-1.68-.79-2.22s-1.31-.81-2.33-.81c-.63,0-1.2.14-1.69.42-.5.26-.9.64-1.21,1.12-.29.48-.44,1.03-.44,1.65v.31c0,.1,0,.2.02.29h-1.78c-.01-.1-.02-.18-.02-.22v-.18c0-.98.22-1.85.66-2.6.45-.75,1.07-1.33,1.85-1.74.78-.43,1.66-.64,2.64-.64h.2c1,0,1.86.2,2.57.59.72.38,1.27.92,1.65,1.61.4.67.59,1.45.59,2.33,0,.78-.13,1.45-.4,2.02-.25.56-.59,1.04-1.01,1.45-.41.41-.87.78-1.39,1.12l-4.03,2.64c-.37.23-.65.48-.84.73-.18.23-.29.45-.35.66s-.1.37-.11.51h8.19v1.65h-10.39Z"/>
      <path class="cls-1" d="M310.36,161.29c-.94,0-1.78-.21-2.53-.64-.75-.43-1.34-1.01-1.78-1.76-.43-.76-.64-1.64-.64-2.62v-5.52c0-.98.22-1.85.66-2.6.44-.76,1.03-1.35,1.78-1.76.76-.43,1.61-.64,2.53-.64h.33c.94,0,1.78.21,2.51.64.75.41,1.33,1,1.76,1.76.44.75.66,1.61.66,2.6v5.52c0,.98-.22,1.86-.66,2.62-.44.75-1.03,1.34-1.78,1.76-.73.43-1.58.64-2.53.64h-.31ZM310.52,159.75c.62,0,1.17-.14,1.65-.42.5-.28.89-.66,1.17-1.14.28-.5.42-1.06.42-1.67v-5.99c0-.63-.14-1.19-.42-1.67s-.67-.87-1.17-1.14c-.48-.29-1.03-.44-1.65-.44s-1.17.15-1.65.44c-.48.28-.86.66-1.14,1.14-.28.48-.42,1.04-.42,1.67v5.99c0,.62.14,1.17.42,1.67.28.48.66.87,1.14,1.14.48.28,1.04.42,1.65.42Z"/>
      <path class="cls-1" d="M321.16,161.07v-.68c0-.92.18-1.69.53-2.31.37-.63.91-1.18,1.63-1.65l4.42-2.9c.48-.32.91-.75,1.28-1.28s.55-1.15.55-1.87c0-.94-.26-1.68-.79-2.22s-1.31-.81-2.33-.81c-.63,0-1.2.14-1.69.42-.5.26-.9.64-1.21,1.12-.29.48-.44,1.03-.44,1.65v.31c0,.1,0,.2.02.29h-1.78c-.01-.1-.02-.18-.02-.22v-.18c0-.98.22-1.85.66-2.6.45-.75,1.07-1.33,1.85-1.74.78-.43,1.66-.64,2.64-.64h.2c1,0,1.86.2,2.57.59.72.38,1.27.92,1.65,1.61.4.67.59,1.45.59,2.33,0,.78-.13,1.45-.4,2.02-.25.56-.59,1.04-1.01,1.45-.41.41-.87.78-1.39,1.12l-4.03,2.64c-.37.23-.65.48-.84.73-.18.23-.29.45-.35.66s-.1.37-.11.51h8.19v1.65h-10.39Z"/>
      <path class="cls-1" d="M343.82,161.07v-3.94h-7.31v-1.56c.34-.5.68-1.05,1.03-1.65.37-.62.73-1.26,1.08-1.94.35-.67.69-1.36,1.01-2.07.32-.72.62-1.43.9-2.13.29-.7.56-1.38.79-2.02h1.83c-.22.69-.48,1.41-.79,2.16-.29.75-.62,1.5-.99,2.24-.35.73-.72,1.44-1.1,2.11-.37.67-.73,1.3-1.1,1.87-.37.56-.71,1.04-1.03,1.45h5.68v-4.91c.09-.15.18-.32.29-.53.12-.22.23-.45.33-.68.1-.25.2-.48.29-.7.1-.22.18-.42.24-.59h.73v7.42h1.89v1.54h-1.89v3.94h-1.88Z"/>
    </g>
  </g>
</svg>