<?xml version="1.0" encoding="UTF-8"?>
<svg id="Camada_2" data-name="Camada 2" xmlns="http://www.w3.org/2000/svg" viewBox="0 0 1234.9 408.42">
  <defs>
    <style>
      .cls-1 {
        fill: #fff;
      }
    </style>
  </defs>
  <g id="Camada_1-2" data-name="Camada 1">
    <g>
      <path class="cls-1" d="M369.47,0c3.68,2.7,7.86,4.05,12.53,4.04,26.65-.03,42.56-.04,47.73-.04,1.47,0,2.58.92,3.34,2.74.12.3.14.63.05.94-.41,1.42-.86,2.69-1.37,3.82-34.71,77.47-53.07,118.44-55.08,122.91-1.27,2.83-2,4.61-2.19,5.34-.35,1.35.33,2.09,2.04,2.21.68.05,8.51.06,23.48.03,13.63-.03,22.01-6.87,25.13-20.11.57-2.45,1.71-8.13,3.41-17.05.27-1.42,1.53-2.43,2.98-2.39h.1c1.34.05,2.39,1.16,2.35,2.49,0,.03,0,.06,0,.09-1.41,21.93-2.23,34.68-2.44,38.25-.19,3.09-1.77,4.65-4.75,4.67-15.39.1-37.22.1-65.47,0-3.14,0-4.94-2.27-3.6-5.25,21.32-47.67,40.76-91.04,58.31-130.13.37-.82.04-1.79-.76-2.21-1.54-.81-9.31-.34-17.02-.44-5.89-.07-10.25.51-13.1,1.74-4.55,1.96-8.05,5.11-10.51,9.45-3.8,6.69-5.35,13.51-8.05,22.58-.1.35-.33.66-.63.87-.94.67-1.93.83-2.98.5-1-.32-1.65-1.31-1.54-2.37,1.28-13.25,2.51-26.02,3.7-38.29.19-1.99.98-3.46,2.37-4.4h1.97Z"/>
      <path class="cls-1" d="M151.6,1.84c25.51,0,46.19,33.16,46.19,74.06s-20.68,74.06-46.19,74.06c-25.51,0-46.19-33.16-46.19-74.06h0C105.41,35,126.09,1.84,151.6,1.84h0ZM121.48,75.9c0,13.48.76,26.6,3.81,39.35,3.24,13.56,11.04,29.15,26.37,29.15s23.14-15.59,26.39-29.15c3.05-12.75,3.81-25.87,3.81-39.35s-.76-26.6-3.81-39.35c-3.24-13.56-11.04-29.15-26.38-29.15s-23.13,15.59-26.38,29.15c-3.05,12.74-3.81,25.86-3.81,39.35Z"/>
      <path class="cls-1" d="M592.92,94.83c1.77,9.89,1.3,18.47-1.41,25.74-7.92,21.32-28.11,31.97-50.29,28.63-20.91-3.15-33.22-19.02-33.39-39.69-.13-15.38,5.33-28.48,16.39-39.31,5.41-5.29,11.66-9.08,18.77-11.37.2-.07.32-.29.25-.49-.01-.03-.03-.07-.05-.1-2.48-3.64-4.07-7.34-4.76-11.09-3.48-18.73,4.84-36.6,22.92-43.13,8.32-3.01,17.03-2.69,26.14.96,4.5,1.8,10.8,5.36,9.75,11.02-2.34,12.61-4.2,22.33-5.58,29.17-.41,2.03-1.41,4.19-3.65,3.26-1.09-.46-1.81-1.57-1.83-2.84-.12-9.32-.71-21.1-5.26-28.74-5.18-8.68-17.41-7.23-24.67-2.61-10.58,6.73-14.22,20.52-12.02,32.27.7,3.76,2.52,7.99,5.63,10.37.25.19.57.28.89.24,4.55-.55,10.35-.77,13.95,1.44,2.17,1.32,2.48,4.34.98,6.22-.76.95-1.99,1.54-3.69,1.79-5.08.73-9.75-.43-14.02-3.49-.25-.18-.57-.22-.86-.13-24.35,7.62-27.7,34.74-23.37,56.08.88,4.38,3.33,10.15,6.06,13.68,10.69,13.81,31.01,13.81,44.2,3.03,10.49-8.57,15.06-19.63,13.7-33.16-.71-7.09-5.6-10.87-12.65-11.55-6.04-.58-15.05,1.5-14.15,9.39.69,5.99,14.56,1.82,13.04,12.71-.56,3.99-2.97,5.9-6.68,6.6-11.81,2.24-15.96-9.48-13.99-18.76,2.72-12.85,16.36-18.69,28.5-17.43,5.81.6,12.82,2.58,19.22,1.76,5.29-.67,4.82-6,.4-7.42-4.15-1.33-6.95-2.52-8.41-3.56-4.13-2.93-3.11-9.78,1.1-12.25,1.96-1.15,4.34-1.54,7.13-1.15,9.31,1.27,11.56,10.86,10.2,19.03-1.5,9.05-8.79,14.55-18,14.32-.26,0-.49.2-.5.46,0,.03,0,.07,0,.1Z"/>
      <path class="cls-1" d="M59.99,79.11c1.72,1.28,4.93,2.55,6.75,4.25,4.55,4.25,7.6,9.5,9.15,15.75,1.01,4.06,3.18,13.79,6.53,29.19.39,1.76,1.23,4.05,2.54,6.87,3.09,6.65,8.88,9.48,15.42,4.55,1.16-.87,2.79-.73,3.81.34.45.47.55,1.21.31,2.21-.85,3.5-4.58,5.78-7.84,6.59-18.36,4.59-26.11-8.13-29.2-23.43-3.23-15.96-4.83-26.17-8.58-35.54-2.44-6.1-6.44-9.46-12.62-10.45-3.97-.64-10.81-1.81-13.37,1.62-.59.78-.88,2.32-.88,4.63-.02,26.73,0,43.56.06,50.49.01,1.17.5,2.32,1.46,3.43,2.04,2.36,11.23,3.31,15.1,3.83,1.09.15,1.86,1.16,1.71,2.25-.02.12-.05.24-.09.36l-.17.5c-.29.86-1.09,1.43-2,1.44-22.04,0-35.81.02-41.32.04-1.05,0-1.86-.28-2.43-.83-.72-.7-.77-1.84-.11-2.6.52-.61,1.25-1,2.19-1.17,5.38-1,11.33-.93,11.33-7.18.03-32.63.03-73.04-.01-121.22-.01-8.23-14.66-3.94-13.9-9.22.15-1.03,1.04-1.79,2.09-1.8,19.97-.05,34.32-.05,43.07,0,17.67.13,35.76,11.04,38.5,29.71,2.86,19.52-8.59,37.45-27.22,43.62-.53.18-.81.76-.63,1.28.07.19.19.35.35.48ZM42.09,8.98c-4.74.12-10.11,1.74-10.09,7.53.05,16.45.04,30.29-.03,41.53-.03,5.47.34,8.91,1.11,10.3,3.77,6.78,14.85,6.08,21.29,4.26,16.5-4.67,20.15-24.59,18.09-39.14-2.25-15.83-14.77-24.85-30.37-24.48Z"/>
      <path class="cls-1" d="M263.71,79.13c1.72,1.28,4.93,2.55,6.74,4.24,4.55,4.25,7.6,9.5,9.15,15.75,1.01,4.06,3.18,13.79,6.53,29.18.39,1.76,1.23,4.05,2.54,6.87,3.08,6.65,8.87,9.48,15.41,4.55,1.16-.87,2.79-.73,3.81.34.45.47.55,1.21.31,2.21-.85,3.5-4.58,5.78-7.84,6.59-18.35,4.59-26.1-8.13-29.19-23.43-3.23-15.95-4.83-26.16-8.57-35.53-2.44-6.1-6.44-9.46-12.62-10.45-3.97-.64-10.81-1.81-13.37,1.62-.59.78-.88,2.32-.88,4.63-.02,26.72,0,43.55.06,50.48.01,1.17.5,2.32,1.46,3.43,2.04,2.36,11.23,3.31,15.09,3.83,1.09.15,1.86,1.16,1.71,2.25-.02.12-.05.24-.09.36l-.17.5c-.29.86-1.09,1.43-2,1.44-22.03,0-35.8,0-41.3.03-1.05,0-1.86-.28-2.43-.83-.72-.7-.77-1.84-.11-2.6.52-.61,1.25-1,2.19-1.17,5.37-1,11.32-.92,11.32-7.17.04-32.63.04-73.02,0-121.19-.01-8.23-14.65-3.94-13.89-9.22.15-1.03,1.04-1.79,2.09-1.8,19.96-.05,34.31-.05,43.06.01,17.66.14,35.75,11.04,38.48,29.71,2.86,19.51-8.59,37.44-27.21,43.61-.53.17-.81.74-.63,1.27.07.2.19.37.35.49ZM245.83,8.99c-4.74.11-10.11,1.73-10.09,7.52.04,16.45.03,30.29-.04,41.53-.04,5.47.33,8.91,1.1,10.3,3.77,6.78,14.85,6.09,21.29,4.27,16.5-4.67,20.16-24.58,18.1-39.13-2.24-15.83-14.76-24.86-30.36-24.49Z"/>
      <path class="cls-1" d="M328.81,4.01c11.18,0,17.53.02,19.05.05,1.16.03,2.08.99,2.05,2.14,0,.08,0,.17-.02.25-.17,1.14-.87,1.8-2.11,1.99-1.32.2-3.9.75-7.73,1.64-4.45,1.04-4.16,4.93-4.16,9.25-.01,4.82-.02,23.71-.02,56.68,0,32.96,0,51.85.01,56.67,0,4.33-.29,8.22,4.16,9.26,3.83.89,6.41,1.44,7.73,1.64,1.24.19,1.94.85,2.11,1.99.17,1.14-.63,2.2-1.78,2.37-.08.01-.17.02-.25.02-1.52.03-7.87.05-19.05.05s-17.52-.02-19.04-.05c-1.16-.02-2.08-.98-2.06-2.13,0-.09,0-.17.02-.26.17-1.14.87-1.8,2.11-1.99,1.32-.2,3.9-.75,7.73-1.64,4.45-1.04,4.16-4.93,4.17-9.26,0-4.82,0-23.71,0-56.67,0-32.97,0-51.86,0-56.68,0-4.32.29-8.21-4.16-9.26-3.83-.89-6.41-1.44-7.73-1.64-1.24-.19-1.94-.85-2.11-1.99-.17-1.14.63-2.2,1.78-2.37.09-.01.17-.02.26-.02,1.52-.03,7.87-.04,19.04-.04Z"/>
      <path class="cls-1" d="M300.81,188c11.57,0,19.96-.01,25.18-.03,3.53-.01,6.62-.6,9.28-1.75,2.41-1.04,3.97-1.42,4.67-1.14,1.69.67,2.59,1.9,2.69,3.69.61,11.47,1.25,24.06,1.92,37.77.07,1.37-.99,2.55-2.36,2.62,0,0-.02,0-.03,0h-.1c-1.47.06-2.74-1-2.95-2.45-1.54-10.68-2.71-20.94-11.45-28.32-4.16-3.51-8.86-5.31-14.11-5.42-6.16-.13-5.69,3.81-5.69,8.97.01,73.27.02,112.05.02,116.34.01,3.84.79,6.52,4.85,7.31,3.57.69,7.16,1.28,10.75,1.75,1.97.26,3.28,1.06,2.72,3.12-.23.85-1,1.45-1.89,1.47-1.93.05-9.76.07-23.49.07s-21.56-.02-23.49-.07c-.89-.01-1.67-.61-1.9-1.47-.56-2.06.75-2.86,2.72-3.12,3.59-.47,7.18-1.06,10.75-1.75,4.06-.79,4.84-3.47,4.85-7.31,0-4.29,0-43.07.01-116.34,0-5.16.47-9.1-5.69-8.97-5.25.11-9.95,1.91-14.11,5.42-8.74,7.38-9.91,17.64-11.45,28.33-.21,1.45-1.48,2.51-2.95,2.45h-.1c-1.38-.06-2.45-1.22-2.39-2.59,0,0,0-.02,0-.03.67-13.71,1.31-26.3,1.92-37.77.1-1.79,1-3.02,2.69-3.69.7-.28,2.26.1,4.67,1.13,2.66,1.15,5.75,1.74,9.27,1.75,5.23.02,13.62.03,25.19.03Z"/>
      <path class="cls-1" d="M0,266.31v-.69c.21-.52.21-.87,0-1.05v-10.06c.21-.5.21-.89,0-1.18v-.7c.31-2.85.61-5.7.9-8.54,1.13-10.93,4.27-21.35,9.43-31.26,7.05-13.54,20.08-25.4,35.84-26.62,10.34-.81,20.04.94,29.1,5.25,1.52.72,2.3,2.17,2.34,4.35.07,3.8.26,13.78.59,29.94.03,1.17-.11,1.99-.41,2.48-1.11,1.82-3.95,1.37-4.49-.55-3.85-13.74-8.94-40.21-29.53-35.39-4.99,1.17-9.24,3.78-12.75,7.84-8.21,9.51-11.49,20.72-13.64,33.19-1.92,11.15-2.27,25.28-1.06,42.38.85,12.01,3.82,23.34,8.91,34.01,5.48,11.48,15.93,21.19,29.62,17.41,4.63-1.27,8.27-4.15,10.9-8.64,4.91-8.34,6.78-19.27,9.16-28.56.22-.87.99-1.51,1.89-1.56,2.19-.12,3.25,1.1,3.2,3.67-.35,14.89-.64,25.86-.87,32.89-.06,1.74-1.22,3.06-3.48,3.97-11.46,4.59-22.9,5.98-34.32,4.15-14.48-2.31-25.64-13.52-32.08-26.74-4.76-9.76-7.61-20.53-8.54-32.3-.21-2.56-.44-5.12-.71-7.69Z"/>
      <path class="cls-1" d="M114.12,327.8c1.91.61,2.64,2.7.82,3.74-.54.31-1.4.47-2.58.47-9.09-.01-18.15-.02-27.19-.01-3.4.01-4.26-3.47-1.12-4.28,1.55-.41,3.27-.83,5.16-1.28,5.02-1.19,6.91-7.29,8.16-12.32,2.87-11.59,13.31-53.69,31.33-126.31.11-.43.37-.81.73-1.06,1.85-1.29,3.41-.94,4.69,1.04.1.16.17.33.22.52,3.13,12.61,13.81,55.47,32.04,128.57.63,2.55,1.46,4.65,2.49,6.3,2.39,3.84,7.5,3.44,10.3,4.64,1.23.53,1.87,1.85,1.43,2.94-.05.11-.1.22-.17.32-.39.6-1.12.9-2.19.9-17.03.03-28.79.03-35.3,0-1.1,0-2.02-.85-2.12-1.95v-.08c-.11-1.06.6-2.03,1.64-2.27,4.84-1.1,11.78.55,9.96-7.69-1.08-4.87-3.79-15.96-8.13-33.27-.96-3.8-4.28-4.38-8.01-4.37-12.34.01-18.76.02-19.25.03-4.37.06-6.01,2.37-7.06,6.63-1.02,4.14-3.29,13.11-6.81,26.91-1.1,4.31-.28,8.76,4.14,10.58.21.09.43.15.66.18,3.54.56,5.59.93,6.16,1.11ZM127.35,276.38c5.84.03,11.64.5,12.95-.48.74-.57.99-1.35.75-2.36-2.91-12.29-7.17-30.19-12.8-53.7-.11-.46-.31-.69-.59-.69-.29,0-.49.23-.6.69-5.89,23.44-10.35,41.29-13.39,53.55-.25,1.01,0,1.8.73,2.37,1.3,1,7.1.59,12.95.62Z"/>
      <path class="cls-1" d="M243.87,228.09c-1.34,2.33-4.23,1.21-4.74-.91-1.87-7.67-4.31-14.99-7.33-21.97-1.34-3.11-3.14-5.97-5.39-8.57-4.5-5.21-12.57-5.54-18.72-3.41-5.48,1.9-9.34,6.93-10.67,12.77-2.11,9.25-.15,17.65,5.87,25.22,6.57,8.26,12.97,12.95,22.97,21.41,13.46,11.37,24.7,26.34,24.33,44.61-.24,12.23-4.9,21.84-13.97,28.81-12.76,9.8-28.73,8.88-43.36,4.8-2.67-.74-5.17-1.88-7.52-3.43-.77-.51-1.24-1.36-1.27-2.28-.45-13.85-.8-24.68-1.04-32.47-.07-2.08.55-4.98,3.04-4.4,1.17.27,1.88.96,2.15,2.08,1.82,7.66,3.52,15.95,7.49,23.96,5.52,11.15,16.54,16.65,28.42,12.27,7.98-2.94,12.13-10.46,13.17-19.02,1.24-10.23-1.03-19.76-6.8-28.58-3.95-6.03-8.7-11.19-14.25-15.46-14.62-11.24-31.98-23.01-32.59-43.98-.83-28.46,29.44-39.51,52.71-30.65,2.02.77,3.82,1.8,5.4,3.09,1.12.92,1.79,2.29,1.83,3.74.1,4.06.3,13.89.6,29.48.03,1.5-.08,2.46-.33,2.89Z"/>
      <path class="cls-1" d="M571.33,185.82c25.51,0,46.19,33.16,46.19,74.07h0c0,40.91-20.68,74.07-46.19,74.07s-46.19-33.16-46.19-74.07,20.68-74.07,46.19-74.07h0ZM541.2,259.9c0,13.48.77,26.61,3.82,39.35,3.24,13.56,11.04,29.15,26.38,29.15,15.34,0,23.13-15.6,26.37-29.16,3.05-12.74,3.81-25.87,3.81-39.35-.01-13.48-.77-26.6-3.82-39.35-3.25-13.55-11.05-29.14-26.38-29.14s-23.14,15.6-26.38,29.15c-3.04,12.75-3.8,25.87-3.8,39.35Z"/>
      <path class="cls-1" d="M959.32,210.86c-.07.25-.1.55-.11.88-.11,3.53-.13,37.87-.06,103.01,0,5.48,1,10.58,7,11.87,1.56.33,3.01.6,4.35.79,2.03.29,2.9,1.03,2.6,2.97-.14.93-1,1.62-2.02,1.62-24.97-.03-47.35-.02-67.16.02-1.28,0-2.43-.78-2.87-1.98l-.02-.05c-.33-.89.11-1.88,1-2.21.16-.06.33-.1.5-.11,6.87-.41,10.28-1.76,10.22-4.05-.06-2.33-.25-4.18-.58-5.56-.29-1.18-2.86-11.69-7.73-31.53-.04-.17-.1-.33-.18-.49-1.21-2.28-2.98-3.48-5.29-3.6-2.2-.11-9.57-.12-22.12-.01-3.3.03-5.4,1.74-6.31,5.13-.33,1.23-2.66,10.38-6.99,27.47-.55,2.15-.68,4.28-.41,6.37.67,5.14,5.74,5.66,10.76,6.22,1.2.13,2.11,1.15,2.11,2.36v.39c0,.89-.73,1.62-1.62,1.62h-21.32c-.22,0-.43.03-.64.1-12.39,4.09-21.58.82-27.59-9.81-.45-.81-1.25-2.92-2.39-6.32-.53-1.59-1.08-3.75-1.64-6.49-.02-.09-1.67-8.1-4.94-24.03-1.21-5.91-3.09-10.99-5.64-15.25-4.06-6.77-13.05-7.81-19.98-7.28-4.07.32-5.05,3.53-4.9,7.41.03.95.04,17.32.02,49.11,0,1.15.33,2.39,1,3.73.14.3.37.55.66.73,3.91,2.44,8.86,2.61,14.84,3.58,1.15.19,1.95,1.26,1.81,2.42v.09c-.14,1.15-1.12,2.02-2.27,2.02h-41.76c-1.23,0-2.26-.93-2.38-2.15v-.05c-.12-1.19.75-2.26,1.95-2.38,0,0,.02,0,.03,0,6.05-.53,9.8-1.85,11.25-3.96.42-.61.63-3.05.63-7.32,0-42.81,0-80.77,0-113.89,0-4.43-.29-7.55-4.93-8.43-4.17-.79-6.53-1.27-7.06-1.42-1.67-.49-2.31-1.42-1.91-2.8.27-.92,1.12-1.56,2.08-1.56,10.87-.07,25.09-.07,42.68,0,9.52.04,19.59,3.1,26.81,9.11,9.13,7.59,13.27,17.61,12.4,30.05-1.11,15.82-12.7,29-27.49,34.08-.6.2-.92.86-.72,1.46.1.3.33.55.62.68,10.32,4.66,14.58,13.72,16.77,24.23,2.01,9.65,3.74,17.58,5.18,23.8,1.11,4.82,3.82,12.39,8.72,14.22,2.91,1.09,5.84.58,8.79-1.53.31-.22.57-.5.77-.82,1.55-2.47,2.6-4.83,3.16-7.08,12.74-51.39,23.34-94.1,31.79-128.14.17-.71.6-1.24,1.27-1.6,3.1-1.66,4.22.93,4.89,3.64,17.09,68.72,27.79,111.57,32.08,128.56.93,3.69,2.8,6.14,5.6,7.36,1.83.8,4.2,1.01,6.3,1.55.34.09.7.1,1.05.04,4.43-.69,9.5-1.05,11.55-5.29.97-2,1.45-4.28,1.46-6.84.01-13.93.02-51.68.01-113.25,0-2.67-.25-4.59-.74-5.76-1.72-4.08-12.61-2.37-13.62-5.72-.34-1.12.32-2.29,1.47-2.63.19-.05.38-.08.58-.09,3.37-.06,10.73-.08,22.07-.06,4.65,0,6.11,2,8.08,6.33,29.5,64.93,44.96,98.91,46.38,101.96.2.44.49.73.86.86.55.2,1.16-.08,1.36-.63.04-.12.06-.24.06-.36v-92.16c0-5.27-1.92-8.7-5.75-10.29-.31-.13-.64-.23-.97-.29-2.75-.48-6.61-.74-7.13-2.63-.32-1.16.37-2.36,1.53-2.68.19-.05.38-.08.58-.08,9.83-.05,19.84-.05,30.02,0,1.19,0,2.2.89,2.34,2.08v.03c.15,1.19-.69,2.27-1.88,2.41-.02,0-.04,0-.06,0-3.54.35-8.33.99-10.42,3.89-1.32,1.83-1.98,4.11-1.98,6.83-.04,66.95-.05,108.78-.03,125.49,0,.94-.26,1.85-.78,2.74-1.5,2.57-3.75,2.98-6.76,1.21-.61-.35-1.33-1.42-2.16-3.21-21.21-45.72-39.36-85.13-54.47-118.23-.15-.31-.4-.62-.75-.91-.41-.33-1.01-.26-1.33.14-.08.11-.15.23-.18.36ZM795.46,192.99c-4.74.11-10.12,1.73-10.1,7.52.04,16.45.02,30.29-.05,41.53-.04,5.48.33,8.92,1.1,10.31,3.77,6.78,14.85,6.09,21.29,4.27,16.51-4.66,20.17-24.58,18.12-39.13-2.24-15.83-14.76-24.87-30.36-24.5ZM887.5,276.38c5.85.03,11.65.5,12.96-.49.74-.56.99-1.34.75-2.35-2.91-12.29-7.18-30.19-12.81-53.7-.11-.47-.3-.7-.58-.7s-.5.23-.61.69c-5.89,23.45-10.35,41.3-13.38,53.56-.25,1.01-.01,1.79.73,2.36,1.29,1.01,7.1.59,12.94.63Z"/>
      <path class="cls-1" d="M1126.82,327.58c-.57.53-1.46,1.04-2.68,1.55-8.76,3.65-18.41,5.15-28.94,4.51-25.05-1.51-38.55-24.1-43.43-46.38-2.69-12.28-3.41-25.68-2.18-40.19,1.17-13.84,4.87-26.03,11.11-36.56,8.72-14.73,22.1-24.94,39.81-24.54,5.28.12,24.07,2.45,25.95,8.1.09.25.13.52.14.79.21,10.16.42,20.29.61,30.39.03,1.41-.09,2.36-.35,2.85-1.05,1.97-3.99,1.56-4.59-.58-3.72-13.4-8.4-38.17-27.67-35.57-6.94.93-12.46,5.12-16.67,10.75-7.97,10.64-11.17,24.45-12.42,37.55-1.49,15.57-1.17,30.4.95,44.49,2.28,15.14,11.24,42.34,30.35,43.22,14.16.65,19.48-9.79,23.04-22.05.9-3.09,2.23-8.39,4-15.88.08-.35.27-.66.55-.89,1.7-1.4,3.82-.91,4.46,1.26.12.42.16,1.29.13,2.6-.51,20.75-.77,31.27-.78,31.56-.04,1.15-.54,2.24-1.39,3.02Z"/>
      <path class="cls-1" d="M1188.72,185.83c25.5,0,46.18,33.16,46.18,74.06h0c0,40.9-20.68,74.06-46.18,74.06h0c-25.5,0-46.18-33.16-46.18-74.06s20.68-74.06,46.18-74.06ZM1158.59,259.9c.01,13.48.77,26.6,3.82,39.34,3.25,13.56,11.04,29.15,26.38,29.15,15.34-.01,23.13-15.6,26.37-29.15,3.05-12.75,3.81-25.87,3.81-39.35-.01-13.48-.77-26.6-3.82-39.35-3.24-13.55-11.04-29.14-26.38-29.14s-23.13,15.59-26.37,29.15c-3.05,12.75-3.81,25.87-3.81,39.35Z"/>
      <path class="cls-1" d="M425.07,229.13h-.14c-1.46.06-2.71-1.01-2.9-2.45-1.67-12.94-4.28-27.95-18.93-32.25-6.25-1.84-12.3-1.99-18.15-.46-3.89,1.02-5.9,3.77-6.01,8.25-.08,3.06-.1,19.55-.05,49.47,0,2.15,1.35,2.74,3.37,2.71,7.86-.12,17.45,1.95,19.83-8.04.85-3.59,1.68-7.5,2.49-11.73.45-2.38,3.64-3.13,4.99-1.07.37.57.56,1.72.56,3.45,0,10.16,0,25-.03,44.51,0,2.44-2.89,3.67-4.74,1.88-.49-.47-.88-1.51-1.18-3.13-1.22-6.57-2.21-10.97-2.96-13.21-1.45-4.33-4.44-6.54-8.97-6.64-3.2-.07-6.62-.09-10.25-.07-2.62.02-3.13,1.33-3.13,3.83,0,5.8,0,22.57.02,50.31,0,4.78,2.06,9.66,6.89,11.14,10.58,3.23,26.53,1.42,32.64-9.71,4.29-7.81,5.14-15.56,7.12-25.22.28-1.39,1.56-2.35,2.98-2.23h.1c1.37.13,2.39,1.31,2.31,2.67-.66,11.74-1.35,23.89-2.08,36.46-.19,3.39-2.38,4.4-5.65,4.4-36.55,0-60.02,0-70.41-.02-1.07,0-1.94-.88-1.94-1.95,0-.08,0-.17.02-.25v-.06c.18-1.28,1.21-2.26,2.48-2.38,7.51-.7,11.27-2.75,11.27-6.16,0-39.47,0-79.92,0-121.37,0-2.23-.83-3.94-2.48-5.12-.31-.22-.66-.38-1.02-.47-2.65-.67-5.38-1.25-8.18-1.74-1.69-.3-2.45-1.15-2.3-2.54.12-1.08,1.07-1.91,2.21-1.91,27.03-.06,49.91-.06,68.62,0,3.58,0,4.33,2.88,4.49,6.13.69,14.29,1.21,25.05,1.57,32.28.07,1.41-1.01,2.62-2.42,2.69-.01,0-.02,0-.04,0Z"/>
      <path class="cls-1" d="M511.02,288.65c.28-1.39,1.56-2.33,2.97-2.18h.1c1.35.16,2.34,1.34,2.26,2.69-1.18,19.19-2.04,32.2-2.57,39.05-.19,2.41-1.63,3.64-4.3,3.71-4.61.1-26.56.12-65.86.05-1.11,0-2.05-.83-2.19-1.93v-.08c-.15-1.15.64-2.21,1.78-2.39,6.23-1.01,9.8-2.05,10.69-3.1.99-1.16,1.36-3.12,1.36-4.74-.01-49.37-.01-89.29,0-119.74,0-3.43-1.68-5.5-5.05-6.19-2.13-.44-4.39-.88-6.78-1.33-.17-.03-.32-.09-.47-.16-2.21-1.11-2.21-4.28.33-4.28,13.23-.04,25.95-.05,38.16-.02,1.19,0,2.2.87,2.37,2.05v.02c.19,1.2-.64,2.31-1.83,2.48-.02,0-.03,0-.05,0-2.84.34-5.46.77-7.85,1.28-3.11.67-4.66,2.72-4.65,6.15.08,76.34.12,114.59.13,114.74.31,5.32,2.53,8.89,6.66,10.71,3.83,1.69,8.17,2.01,13.01.96,17.46-3.8,18.63-22.02,21.77-37.76Z"/>
      <path class="cls-1" d="M720.45,252.35c4.45,1.69,8.6,3.47,12.17,5.98,15.41,10.88,20.24,29.47,14.47,47.12-4.11,12.61-14.79,21.69-27.38,25.08-4.24,1.15-11.09,1.66-20.56,1.55-11.24-.13-22.49-.15-33.74-.05-1.13.01-2.05-.89-2.06-2.02,0-.08,0-.15.01-.23v-.05c.13-1.25,1.13-2.25,2.38-2.37,5.87-.57,9.45-1.85,10.73-3.84.45-.69.67-3.07.67-7.14,0-11.77-.01-50.64-.02-116.6,0-9.33-13.42-4.63-13.97-9.32-.14-1.19.73-2.27,1.94-2.41.08,0,.16-.01.24-.01,14.39-.07,28.52-.07,42.41,0,14.56.06,27.55,8.35,32.18,22.29,2.61,7.85,1.78,16.75-2.47,24.13-3.99,6.91-10.09,11.74-17.14,15.43-.66.34-.92,1.16-.58,1.82.15.29.41.52.72.64ZM691.47,201.36l-.2,39.62c-.02,4.78,3.83,8.67,8.61,8.7h1.92c13.67.08,24.82-11.74,24.9-26.39h0s.02-3.88.02-3.88c.08-14.65-10.95-26.59-24.62-26.66h-1.92c-4.78-.04-8.68,3.82-8.71,8.6,0,0,0,0,0,.01ZM702.54,254.84c-6.59.23-11.17,2.96-11.17,9.97,0,11.32,0,26.67-.01,46.05,0,3.98.26,6.73.79,8.24,2.62,7.5,9.93,8.73,17.41,7.55,9.97-1.57,17.14-7.48,21.51-17.72,4.78-11.16,4.75-28.89-1.61-39.63-5.95-10.07-14.93-14.89-26.92-14.46Z"/>
      <path class="cls-1" d="M97.7,399.82c-.02,4.71-3.85,8.52-8.56,8.5h-1.32c-4.71-.02-8.52-3.85-8.5-8.56h0l.03-8.28c.02-4.71,3.85-8.52,8.56-8.5h1.32c4.71.02,8.52,3.85,8.5,8.56h0s-.03,8.28-.03,8.28ZM94.55,391.23c.01-3.1-2.5-5.63-5.6-5.64h-.72c-3.1-.01-5.63,2.49-5.64,5.6h0s-.03,8.9-.03,8.9c-.01,3.1,2.5,5.63,5.6,5.64h.72c3.1.01,5.63-2.49,5.64-5.6h0s.03-8.9.03-8.9Z"/>
      <path class="cls-1" d="M123.52,395.79v11.71c0,.26-.21.47-.46.47h-.85c-.37,0-.67-.28-.69-.65-.07-.97-.14-1.5-.19-1.59-.16-.26-.5-.33-.77-.17-.04.03-.08.06-.11.1-2.54,2.77-5.87,3.45-9.98,2.06-4.14-1.41-5.24-6.22-5.35-10.15-.12-4.6-.11-8.39,2.32-11.92,2.07-3.03,7.81-3.1,10.64-2.18,3.43,1.13,5.23,3.83,5.4,8.12,0,.15-.12.27-.27.28,0,0,0,0-.01,0h-2.5c-.16,0-.29-.13-.3-.29-.2-4.23-2.41-6.23-6.63-6.01-3.08.16-4.78,2.17-5.14,5.18-.38,3.17-.4,6.27-.05,9.28.48,4.24,3.01,6.31,7.15,5.65,3.94-.64,4.96-3.81,4.77-7.53-.02-.37-.32-.66-.68-.66h-5.75c-.25,0-.45-.2-.45-.45v-1.41c0-.28.22-.5.5-.5h8.73c.37,0,.67.3.67.66h0Z"/>
      <path class="cls-1" d="M201.31,399.83c-.03,4.73-3.89,8.53-8.62,8.5h-1.28c-4.73-.04-8.53-3.9-8.5-8.63h0s.06-8.22.06-8.22c.03-4.73,3.89-8.53,8.62-8.5h1.28c4.73.04,8.53,3.9,8.5,8.63l-.06,8.22ZM198.14,391.18c0-3.09-2.51-5.6-5.6-5.6h-.74c-3.09,0-5.6,2.51-5.6,5.6h0v8.94c0,3.09,2.51,5.6,5.6,5.6h.74c3.09,0,5.6-2.51,5.6-5.6h0v-8.94Z"/>
      <path class="cls-1" d="M209.26,400.38h2.15c.22,0,.39.17.39.39,0,0,0,0,0,.01-.07,5.2,5.75,5.57,9.54,4.47.31-.09.61-.22.89-.39,3.33-2.05,2.08-6.52-1.63-7.52-3.81-1.04-6.28-1.81-7.39-2.3-3.34-1.5-4.63-4.94-3.21-8.24,1.58-3.67,7.45-4.25,10.93-3.55,3.61.73,5.52,2.79,5.73,6.19.02.36-.25.67-.62.69-.01,0-.03,0-.04,0h-1.6c-.4.01-.72-.3-.73-.7-.15-5.39-11.59-5.33-11.03.26.58,5.75,14.21,2.12,14.67,10.76.42,8.07-9.08,9.2-14.46,6.94-2.78-1.17-4.1-3.38-3.96-6.65,0-.2.17-.36.37-.36Z"/>
      <path class="cls-1" d="M1029.59,400.76c-.08,5.21,5.74,5.59,9.54,4.5.31-.09.61-.22.89-.39,3.34-2.05,2.09-6.52-1.62-7.53-3.81-1.05-6.28-1.82-7.39-2.32-3.33-1.5-4.62-4.95-3.19-8.25,1.59-3.67,7.46-4.24,10.94-3.53,3.61.73,5.51,2.8,5.72,6.21.02.36-.25.67-.62.69-.01,0-.03,0-.04,0h-1.6c-.4,0-.72-.31-.73-.71-.14-5.39-11.58-5.36-11.03.24.56,5.75,14.21,2.15,14.65,10.79.41,8.08-9.1,9.19-14.48,6.92-2.78-1.17-4.1-3.39-3.95-6.66,0-.2.17-.36.37-.36h2.15c.22,0,.39.17.39.39,0,0,0,0,0,.01Z"/>
      <path class="cls-1" d="M1135.2,405.25h12.27c.28,0,.5.22.5.5v1.74c0,.28-.22.51-.5.51h-15.86c-.36,0-.65-.29-.65-.65h0c0-2.89.89-4.99,2.66-6.28,1.45-1.06,4.04-2.78,7.76-5.15,1.96-1.25,3.06-2.8,3.29-4.65.94-7.59-10.19-7.84-10.58-.05-.02.31-.28.56-.59.56h-1.76c-.32,0-.58-.26-.58-.58,0-.02,0-.03,0-.05.49-5.5,3.61-8.22,9.36-8.15,8.03.09,9.72,9.76,3.82,14.13-.44.33-3.13,2.14-8.06,5.41-.63.41-1.14,1.09-1.54,2.02-.1.26.02.55.27.65.06.02.12.04.19.04Z"/>
      <path class="cls-1" d="M1173.74,400.58c-.03,4.32-3.56,7.8-7.87,7.77h-1.1c-4.32-.04-7.8-3.56-7.77-7.88h0s.07-9.7.07-9.7c.03-4.32,3.56-7.8,7.87-7.77h1.1c4.32.04,7.8,3.56,7.77,7.88h0s-.07,9.7-.07,9.7ZM1170.68,390.45c-.01-2.76-2.26-4.99-5.03-4.97h-.56c-2.76.02-4.99,2.27-4.97,5.03l.05,10.34c.01,2.76,2.26,4.99,5.03,4.97h.56c2.76-.02,4.99-2.27,4.97-5.03h0s-.05-10.34-.05-10.34Z"/>
      <path class="cls-1" d="M1186.54,404.55c-.1.26.02.55.27.65.06.02.12.04.19.04l12.29.02c.28,0,.5.22.5.5v1.74c0,.28-.22.51-.5.51,0,0,0,0-.01,0l-15.87-.02c-.36,0-.65-.29-.65-.65h0c0-2.9.9-5,2.67-6.29,1.45-1.06,4.04-2.77,7.77-5.14,1.97-1.25,3.07-2.8,3.3-4.65.95-7.6-10.19-7.86-10.59-.07-.02.31-.28.56-.59.56h-1.76c-.32,0-.58-.26-.58-.58,0-.02,0-.03,0-.05.49-5.51,3.62-8.22,9.38-8.15,8.04.1,9.72,9.78,3.8,14.15-.44.33-3.13,2.14-8.07,5.41-.63.41-1.14,1.09-1.55,2.02Z"/>
      <path class="cls-1" d="M1222.88,407.58c0,.22-.18.4-.41.4h-2.14c-.25,0-.46-.2-.46-.45v-5.54c0-.27-.21-.48-.48-.48h-10.29c-.8,0-1.44-.65-1.43-1.45,0-.26.07-.51.2-.73,3.25-5.42,5.83-10.71,7.76-15.87.1-.26.36-.44.64-.44h2.03c.2,0,.36.16.36.36,0,.04,0,.08-.02.12-1.97,5.43-4.47,10.36-7.5,14.77-.15.21-.1.49.1.64.08.06.18.09.28.09h7.75c.34,0,.61-.27.61-.61v-6.74c0-.4.09-.79.26-1.15l1.6-3.37c.13-.3.48-.43.78-.3.22.1.36.31.35.55v11.16c0,.25.21.46.46.46h2.18c.27,0,.49.22.49.49v1.36c0,.36-.29.65-.65.65h-1.97c-.28,0-.5.23-.5.51h0v5.57Z"/>
      <path class="cls-1" d="M10.8,383.24c.44,0,.87.02,1.29.05.35.03.65.26.76.59l8.04,23.6c.07.2-.05.42-.25.49-.04.01-.08.02-.12.02h-2.16c-.31,0-.58-.19-.67-.48l-1.56-4.56c-.13-.39-.5-.67-.92-.68-.41-.01-1.89-.02-4.42-.02s-4.01,0-4.42.01c-.42.02-.79.29-.92.69l-1.56,4.55c-.1.29-.37.48-.68.48H1.05c-.22,0-.38-.19-.38-.4,0-.04,0-.07.02-.11l8.06-23.59c.11-.33.41-.56.75-.59.43-.03.86-.05,1.3-.05ZM6.49,399.33c-.06.17.04.35.2.4.03.01.07.02.11.02h7.81c.18,0,.32-.14.32-.31,0-.03,0-.07-.02-.1l-3.88-11.99c-.05-.17-.23-.26-.4-.21-.1.03-.18.11-.21.21l-3.93,11.98Z"/>
      <path class="cls-1" d="M28.75,383.67c0-.24.19-.43.43-.43h8.56c5.03,0,9.11,4.15,9.11,9.28v6.22c0,5.13-4.08,9.28-9.11,9.28h-8.56c-.24,0-.43-.19-.43-.43v-23.92ZM31.95,386.34l.1,18.64c0,.26.21.47.47.47h0l4.86-.03c3.47-.02,6.28-2.95,6.26-6.55,0,0,0,0,0,0l-.04-6.54c-.02-3.6-2.85-6.51-6.32-6.49l-4.86.03c-.26,0-.47.21-.47.47Z"/>
      <path class="cls-1" d="M62.69,404.35c.13,0,.23-.1.29-.3,2.18-6.94,4.4-13.81,6.65-20.6.04-.13.16-.22.3-.22h2.74c.09,0,.17.08.17.17,0,.02,0,.04-.01.06l-8.08,23.99c-.09.26-.3.47-.57.54-.02,0-.51.01-1.48.01s-1.47,0-1.49-.01c-.26-.07-.48-.27-.57-.53l-8.16-23.96c-.03-.09.01-.19.1-.22.02,0,.04-.01.06-.01h2.74c.13-.01.25.07.3.2,2.27,6.79,4.51,13.65,6.72,20.58.06.2.16.3.29.3Z"/>
      <path class="cls-1" d="M140.33,402.25c-2.53,0-4.01,0-4.42.01-.42.01-.79.29-.92.68l-1.57,4.56c-.09.29-.36.48-.67.48h-2.15c-.22-.01-.39-.19-.39-.4,0-.04,0-.08.02-.12l8.07-23.57c.12-.32.41-.55.75-.58.43-.04.86-.06,1.3-.06s.86.02,1.29.06c.35.03.65.26.76.59l8.02,23.58c.07.2-.05.42-.25.49-.04.01-.08.02-.12.02h-2.16c-.31,0-.58-.19-.67-.48l-1.56-4.56c-.13-.39-.5-.67-.92-.68-.41,0-1.88-.01-4.41-.02ZM136,399.33c-.06.17.04.35.2.4.03.01.06.02.1.02h7.87c.18,0,.32-.14.32-.31,0-.03,0-.07-.02-.1l-3.91-11.97c-.05-.17-.23-.26-.4-.21-.1.03-.18.11-.21.21l-3.95,11.96Z"/>
      <path class="cls-1" d="M158.25,383.68c0-.24.19-.43.43-.43h8.61c5.01,0,9.08,4.14,9.08,9.24v6.28c0,5.1-4.07,9.24-9.08,9.24h-8.61c-.24,0-.43-.19-.43-.43h0v-23.9ZM161.47,386.33l.06,18.66c0,.24.19.43.43.43h0l5.2-.02c3.31-.01,5.98-2.91,5.97-6.48h0s-.02-6.6-.02-6.6c-.01-3.57-2.7-6.45-6.01-6.44l-5.2.02c-.24,0-.43.19-.43.43Z"/>
      <path class="cls-1" d="M1016.62,395.54c0,.29,0,.49,0,.6,0,.36-.3.66-.67.66h-9.98c-.19,0-.34.15-.34.34v7.78c0,.21.17.38.39.38h11.39c.22,0,.41.14.48.34l.56,1.63c.09.25-.05.52-.3.61-.05.02-.11.03-.17.03l-15.13.02c-.19,0-.34-.15-.34-.34,0,0,0-.01,0-.02,0-.16,0-4.16-.01-12-.01-7.85-.02-11.85-.03-12.01-.01-.19.13-.35.32-.36,0,0,.01,0,.02,0l15.13-.03c.27,0,.49.21.5.48,0,.06,0,.11-.03.16l-.55,1.63c-.07.2-.26.34-.48.34l-11.39.04c-.22,0-.39.17-.39.38l.02,7.78c0,.19.15.34.34.34,0,0,0,0,.01,0l9.98-.03c.36,0,.65.29.66.65,0,.11,0,.31.01.6Z"/>
      <path class="cls-1" d="M1061.81,383.25c3.05,0,6.01,0,8.87-.01.31,0,.57.25.58.57,0,0,0,0,0,.01v1.64c0,.3-.24.54-.53.54h-6.76c-.33,0-.6.27-.6.6v20.77c0,.34-.27.62-.61.62h-1.9c-.34,0-.61-.28-.61-.62h0s.01-20.77.01-20.77c0-.33-.27-.6-.6-.6h-6.76c-.29,0-.53-.24-.53-.54h0v-1.64c0-.32.25-.58.56-.59,0,0,0,0,0,0,2.87.02,5.82.03,8.87.02Z"/>
      <rect class="cls-1" x="1085.63" y="403.73" width="4.12" height="4.4" rx=".4" ry=".4" transform="translate(679.86 1492.91) rotate(-89.9)"/>
    </g>
  </g>
</svg>